<?xml version="1.0" encoding="UTF-8"?><svg id="Layer_2" xmlns="http://www.w3.org/2000/svg" viewBox="0 0 623.07 215.14"><defs><style>.cls-1{fill:#fff;}.cls-2{fill:#740e26;}</style></defs><g id="Layer_1-2"><g><g><path class="cls-2" d="M42.75,154.57c-.44,.56-.83,1.23-1.15,2.02l-17.1,44.18h-2.86L3.63,156.73c-.37-.88-.83-1.59-1.36-2.13-.54-.53-1.29-.83-2.27-.87v-.7H12.35v.7c-.47,0-.91,.01-1.33,.04s-.77,.12-1.05,.28-.45,.41-.52,.73c-.07,.33,.01,.77,.24,1.33l14.24,35.87,13.12-34.34c.51-1.3,.63-2.26,.35-2.86-.28-.6-1.16-.95-2.65-1.05v-.7h10.05v.7c-.93,0-1.62,.28-2.06,.84Z"/><path class="cls-2" d="M49.27,200.28v-.56c1.26,0,2.08-.15,2.48-.45,.39-.3,.59-1.13,.59-2.48v-25.19c0-.79-.06-1.33-.17-1.61-.12-.28-.29-.45-.52-.52-.23-.07-.55-.08-.94-.03-.4,.05-.9,0-1.5-.14v-.35l6.84-2.37,1.33,.07v30.36c0,1.02,.07,1.73,.21,2.13,.14,.4,.74,.59,1.82,.59v.56h-10.12Zm7.26-43.44c-.6,.54-1.28,.8-2.02,.8s-1.42-.27-2.02-.8c-.61-.53-.91-1.34-.91-2.41s.3-1.87,.91-2.41c.6-.53,1.28-.8,2.02-.8s1.42,.27,2.02,.8c.6,.54,.91,1.34,.91,2.41s-.3,1.87-.91,2.41Z"/><path class="cls-2" d="M89.4,200.28v-.56c1.21,0,1.93-.19,2.16-.56,.23-.37,.35-1.16,.35-2.37v-18.7c0-1.07-.12-2.09-.35-3.07-.23-.98-.62-1.84-1.15-2.58-.54-.74-1.22-1.34-2.06-1.78-.84-.44-1.84-.66-3-.66-1.95,0-3.64,.55-5.06,1.64-1.42,1.09-2.45,2.52-3.11,4.29-.09,.19-.22,.54-.38,1.05-.16,.51-.24,.86-.24,1.05v18.98c0,.79,.02,1.44,.07,1.95,.05,.51,.54,.77,1.47,.77v.56h-8.93v-.56c1.16,0,1.85-.2,2.06-.59,.21-.39,.31-1.17,.31-2.34v-25.47c0-.74-.05-1.24-.14-1.5-.09-.26-.23-.4-.42-.42-.19-.02-.44,0-.77,.07-.33,.07-.72,.04-1.19-.1v-.7l6-2.09,1.33,.07v6.14c1.35-1.95,2.87-3.52,4.57-4.71s3.8-1.78,6.32-1.78c1.72,0,3.2,.31,4.43,.94,1.23,.63,2.23,1.48,3,2.55,.77,1.07,1.34,2.3,1.71,3.7,.37,1.4,.56,2.88,.56,4.47v19.05c0,.65,.14,1.27,.42,1.85,.28,.58,.81,.87,1.61,.87v.56h-9.56Z"/><path class="cls-2" d="M136.4,193.33c-1.56,2.58-3.52,4.51-5.9,5.79-2.37,1.28-4.92,1.93-7.64,1.95-2.72,.02-5.27-.61-7.64-1.88s-4.34-3.21-5.9-5.79c-1.56-2.58-2.34-5.83-2.34-9.74s.78-7.16,2.34-9.77c1.56-2.6,3.52-4.55,5.9-5.83,2.37-1.28,4.91-1.92,7.61-1.92s5.3,.65,7.68,1.95c2.37,1.3,4.34,3.26,5.9,5.86,1.56,2.61,2.34,5.84,2.34,9.7s-.78,7.08-2.34,9.67Zm-4.78-17.59c-1.07-2.16-2.4-3.81-3.98-4.96-1.58-1.14-3.28-1.76-5.09-1.85-1.81-.09-3.49,.38-5.03,1.43s-2.79,2.68-3.77,4.89c-.98,2.21-1.44,5.01-1.4,8.41,.05,3.17,.62,5.83,1.71,7.99,1.09,2.16,2.43,3.8,4.01,4.92,1.58,1.12,3.28,1.71,5.09,1.78,1.81,.07,3.49-.43,5.02-1.5,1.54-1.07,2.8-2.7,3.8-4.88,1-2.19,1.45-4.96,1.36-8.31-.09-3.12-.68-5.76-1.75-7.92Z"/><path class="cls-2" d="M160.23,199.13c-.56,.4-1.15,.73-1.78,1.01s-1.28,.49-1.95,.63c-.67,.14-1.29,.21-1.85,.21-1.49,0-2.69-.26-3.59-.77-.91-.51-1.62-1.2-2.13-2.06-.51-.86-.86-1.86-1.05-3-.19-1.14-.28-2.34-.28-3.59v-22.68h-5.23v-1.47l5.03-.35c.79-1.3,1.36-2.72,1.71-4.26,.35-1.54,.8-3,1.36-4.4,.19-.05,.39-.14,.63-.28,.23-.14,.46-.25,.7-.35,.23-.09,.43-.12,.59-.07,.16,.05,.24,.21,.24,.49v8.86h7.61v1.81h-7.61v22.68c0,.65,.06,1.36,.17,2.13,.12,.77,.33,1.48,.63,2.13,.3,.65,.72,1.2,1.26,1.64,.53,.44,1.22,.66,2.06,.66,.74,0,1.47-.08,2.16-.25,.7-.16,1.37-.45,2.02-.87l.56,.77c-.28,.51-.7,.97-1.26,1.36Z"/><path class="cls-2" d="M171.68,182.06c.05,1.81,.29,3.59,.73,5.34,.44,1.74,1.12,3.31,2.02,4.71,.91,1.4,2.09,2.51,3.56,3.35,1.47,.84,3.25,1.26,5.34,1.26,.88,0,1.83-.07,2.83-.21,1-.14,1.96-.36,2.9-.66,.93-.3,1.8-.72,2.62-1.26,.81-.54,1.48-1.22,1.99-2.06l.7,1.05c-1.3,2.47-3.13,4.32-5.48,5.55-2.35,1.23-4.9,1.85-7.64,1.85-2.47,0-4.58-.44-6.35-1.33-1.77-.88-3.22-2.08-4.36-3.59-1.14-1.51-1.98-3.28-2.51-5.3-.54-2.02-.8-4.15-.8-6.39s.29-4.43,.87-6.59c.58-2.16,1.48-4.09,2.69-5.79,1.21-1.7,2.73-3.07,4.57-4.12,1.84-1.05,4.01-1.57,6.53-1.57,2.28,0,4.2,.42,5.76,1.26,1.56,.84,2.84,1.95,3.84,3.35,1,1.4,1.76,3,2.27,4.82,.51,1.82,.86,3.7,1.05,5.65l.07,.7h-23.17Zm16.5-6.35c-.3-1.16-.74-2.22-1.33-3.17-.58-.95-1.34-1.72-2.27-2.3-.93-.58-2.09-.87-3.49-.87-1.49,0-2.77,.27-3.84,.8-1.07,.54-1.98,1.26-2.72,2.16-.75,.91-1.34,1.95-1.78,3.14-.44,1.19-.76,2.43-.94,3.73h16.96c-.09-1.16-.29-2.33-.59-3.49Z"/><path class="cls-2" d="M223.95,215.14v-.56c.6,0,1.13-.01,1.57-.03,.44-.02,.8-.13,1.08-.31,.28-.19,.49-.48,.63-.87,.14-.4,.21-.97,.21-1.71v-16.96c-1.16,2-2.72,3.55-4.68,4.64s-4.09,1.64-6.42,1.64-4.37-.49-6-1.47c-1.63-.98-2.96-2.26-3.98-3.84-1.02-1.58-1.76-3.37-2.2-5.37-.44-2-.66-4.02-.66-6.07,0-2.37,.31-4.64,.94-6.8,.63-2.16,1.57-4.07,2.83-5.72,1.26-1.65,2.84-2.97,4.75-3.94,1.91-.98,4.16-1.46,6.77-1.46,3.72,0,6.79,1.44,9.21,4.33l3.35-3.91,1.05,.14,.07,44.81c0,.79,.05,1.38,.14,1.78,.09,.39,.26,.67,.49,.84,.23,.16,.55,.25,.94,.28,.4,.02,.92,.03,1.57,.03v.56h-11.65Zm3.49-35.94c0-1.3-.16-2.57-.49-3.8-.33-1.23-.84-2.31-1.54-3.25-.7-.93-1.57-1.69-2.62-2.27-1.05-.58-2.29-.87-3.73-.87-2,0-3.66,.42-4.99,1.26-1.33,.84-2.38,1.94-3.17,3.32-.79,1.37-1.35,2.9-1.67,4.57-.33,1.67-.49,3.35-.49,5.02,0,3.17,.46,5.75,1.4,7.75,.93,2,2.08,3.49,3.45,4.47,1.37,.98,2.87,1.5,4.5,1.57,1.63,.07,3.13-.24,4.5-.94,1.37-.7,2.52-1.73,3.46-3.11,.93-1.37,1.4-3.04,1.4-4.99v-8.72Z"/><path class="cls-2" d="M263.73,200.56l-.63-.14-.07-6.07c-1.35,2.09-2.85,3.72-4.5,4.88-1.65,1.16-3.76,1.75-6.32,1.75-3.4,0-5.92-1.04-7.57-3.11-1.65-2.07-2.48-4.71-2.48-7.92v-19.89c0-1.07-.17-1.75-.52-2.02-.35-.28-.99-.42-1.92-.42v-.56h7.61l-.14,22.19c0,1.95,.37,3.54,1.12,4.75,.74,1.21,1.7,2.07,2.86,2.58,1.16,.51,2.41,.7,3.73,.56s2.57-.56,3.73-1.26c1.16-.7,2.13-1.66,2.9-2.9,.77-1.23,1.15-2.69,1.15-4.36v-18.56c0-1.16-.24-1.86-.73-2.09-.49-.23-1.22-.35-2.2-.35v-.56h8.1l-.14,29.24c0,.93,.17,1.49,.52,1.67,.35,.19,.92,.28,1.71,.28v.56l-6.21,1.75Z"/><path class="cls-2" d="M282.43,182.06c.05,1.81,.29,3.59,.73,5.34,.44,1.74,1.12,3.31,2.02,4.71,.91,1.4,2.09,2.51,3.56,3.35s3.25,1.26,5.34,1.26c.88,0,1.83-.07,2.83-.21,1-.14,1.96-.36,2.9-.66,.93-.3,1.8-.72,2.62-1.26,.81-.54,1.48-1.22,1.99-2.06l.7,1.05c-1.3,2.47-3.13,4.32-5.48,5.55s-4.9,1.85-7.64,1.85c-2.47,0-4.58-.44-6.35-1.33-1.77-.88-3.22-2.08-4.36-3.59-1.14-1.51-1.98-3.28-2.51-5.3-.54-2.02-.8-4.15-.8-6.39s.29-4.43,.87-6.59c.58-2.16,1.48-4.09,2.69-5.79,1.21-1.7,2.73-3.07,4.57-4.12s4.01-1.57,6.53-1.57c2.28,0,4.2,.42,5.76,1.26,1.56,.84,2.84,1.95,3.84,3.35,1,1.4,1.75,3,2.27,4.82,.51,1.82,.86,3.7,1.05,5.65l.07,.7h-23.17Zm16.51-6.35c-.3-1.16-.75-2.22-1.33-3.17-.58-.95-1.34-1.72-2.27-2.3-.93-.58-2.09-.87-3.49-.87-1.49,0-2.77,.27-3.84,.8-1.07,.54-1.98,1.26-2.72,2.16s-1.34,1.95-1.78,3.14c-.44,1.19-.76,2.43-.94,3.73h16.96c-.09-1.16-.29-2.33-.59-3.49Z"/><path class="cls-1" d="M374.69,200.28v-.7c.74,0,1.35-.03,1.81-.1,.46-.07,.83-.22,1.08-.45,.25-.23,.43-.57,.52-1.01,.09-.44,.14-1.06,.14-1.85v-37.69l-17.87,41.8h-2.37l-17.87-40.9v34.96c0,.88,.01,1.65,.04,2.3,.02,.65,.14,1.2,.35,1.64,.21,.44,.56,.77,1.05,.98,.49,.21,1.22,.31,2.2,.31v.7h-11.24v-.7c.98,0,1.73-.1,2.27-.31,.53-.21,.91-.52,1.12-.94,.21-.42,.32-.95,.35-1.61,.02-.65,.04-1.44,.04-2.37v-37.2c0-.84-.06-1.49-.17-1.95-.12-.46-.31-.8-.59-1.01-.28-.21-.66-.34-1.15-.38-.49-.05-1.11-.07-1.85-.07v-.7h10.89l16.96,38.66,16.47-38.66h10.68v.7c-.75,0-1.34,.04-1.78,.1-.44,.07-.78,.22-1.01,.45s-.38,.58-.45,1.05c-.07,.47-.1,1.07-.1,1.81v39.01c0,.79,.03,1.41,.1,1.85,.07,.44,.22,.78,.45,1.01,.23,.23,.57,.38,1.01,.45,.44,.07,1.04,.1,1.78,.1v.7h-12.84Z"/><path class="cls-1" d="M421.73,198.74c-1.21,.74-2.29,1.29-3.25,1.64-.95,.35-1.76,.41-2.41,.17-.65-.23-1.16-.77-1.54-1.61-.37-.84-.58-2.07-.63-3.7-1.35,1.67-2.93,3.06-4.75,4.15s-3.82,1.64-6,1.64c-1.3,0-2.51-.2-3.63-.59-1.12-.4-2.09-.98-2.93-1.75-.84-.77-1.5-1.69-1.99-2.76-.49-1.07-.73-2.28-.73-3.63s.26-2.62,.77-3.66c.51-1.05,1.19-1.95,2.02-2.72s1.81-1.44,2.93-2.02c1.12-.58,2.28-1.13,3.49-1.64,2-.88,3.84-1.48,5.51-1.78,1.68-.3,3.37-.73,5.09-1.29v-3.42c0-1.16-.26-2.19-.77-3.07-.51-.88-1.17-1.6-1.99-2.16-.82-.56-1.75-.98-2.79-1.26s-2.08-.42-3.11-.42c-.56,0-1.16,.1-1.81,.31-.65,.21-1.3,.48-1.95,.8-.65,.33-1.28,.69-1.88,1.08-.61,.4-1.14,.76-1.61,1.08l-.63-.42c.46-.51,.93-.99,1.4-1.43,.46-.44,.95-.85,1.46-1.22,1.21-.93,2.43-1.63,3.66-2.09,1.23-.46,2.59-.7,4.08-.7,3.54,0,6.22,.88,8.06,2.65,1.84,1.77,2.76,4.44,2.76,8.03v17.1c0,.23,.01,.58,.04,1.05,.02,.46,.08,.95,.17,1.46,.09,.51,.23,.95,.42,1.33,.19,.37,.44,.56,.77,.56,.28,0,.59-.07,.94-.21,.35-.14,.64-.33,.87-.56l-.07,1.05Zm-12.35-15.77c-1.07,.28-2.2,.6-3.38,.98-1.19,.37-2.29,.87-3.32,1.5-1.02,.63-1.86,1.4-2.51,2.3-.65,.91-.98,2.04-.98,3.38,0,1.58,.36,2.84,1.08,3.77,.72,.93,1.62,1.57,2.69,1.92,1.07,.35,2.23,.43,3.49,.25,1.26-.19,2.42-.59,3.49-1.22s1.96-1.45,2.69-2.48c.72-1.02,1.08-2.21,1.08-3.56v-7.96l-4.33,1.12Z"/><path class="cls-1" d="M439.45,200.28h-11.17v-.56c1.21,0,1.98-.17,2.3-.52,.33-.35,.49-1.15,.49-2.41v-25.47c0-.74-.05-1.27-.14-1.57-.09-.3-.25-.48-.45-.52-.21-.05-.49-.06-.84-.04-.35,.02-.78-.03-1.29-.17v-.35l6.21-2.09,1.33,.07v7.05c.42-.88,.92-1.77,1.5-2.65,.58-.88,1.23-1.67,1.95-2.37,.72-.7,1.54-1.27,2.44-1.71s1.92-.66,3.04-.66c.65,0,1.34,.19,2.06,.56,.72,.37,1.13,.95,1.22,1.75,0,.23-.01,.54-.04,.91-.02,.37-.1,.76-.24,1.15-.14,.4-.33,.76-.56,1.08-.23,.33-.54,.56-.91,.7-.47,.14-.83,.06-1.08-.25-.26-.3-.5-.66-.73-1.08-.23-.42-.5-.83-.8-1.22-.3-.39-.71-.59-1.22-.59-.47,0-.97,.16-1.5,.49-.54,.33-1.06,.72-1.57,1.19-.51,.47-.98,.95-1.4,1.47s-.75,.95-.98,1.33c-.65,.98-.98,2.02-.98,3.14v20.1c0,.7,.06,1.23,.17,1.61,.12,.37,.3,.64,.56,.8s.59,.26,1.01,.28c.42,.02,.95,.03,1.6,.03v.56Z"/><path class="cls-1" d="M453.48,200.28v-.56c1.26,0,2.08-.15,2.48-.45,.39-.3,.59-1.13,.59-2.48v-25.19c0-.79-.06-1.33-.17-1.61s-.29-.45-.52-.52c-.23-.07-.55-.08-.94-.03-.4,.05-.9,0-1.5-.14v-.35l6.84-2.37,1.33,.07v30.36c0,1.02,.07,1.73,.21,2.13,.14,.4,.74,.59,1.81,.59v.56h-10.12Zm7.26-43.44c-.61,.54-1.28,.8-2.02,.8s-1.42-.27-2.02-.8c-.61-.53-.91-1.34-.91-2.41s.3-1.87,.91-2.41c.6-.53,1.28-.8,2.02-.8s1.42,.27,2.02,.8c.6,.54,.91,1.34,.91,2.41s-.3,1.87-.91,2.41Z"/><path class="cls-1" d="M488.72,199.13c-.56,.4-1.15,.73-1.78,1.01s-1.28,.49-1.95,.63c-.67,.14-1.29,.21-1.85,.21-1.49,0-2.69-.26-3.59-.77-.91-.51-1.62-1.2-2.13-2.06-.51-.86-.86-1.86-1.05-3-.19-1.14-.28-2.34-.28-3.59v-22.68h-5.23v-1.47l5.02-.35c.79-1.3,1.36-2.72,1.71-4.26,.35-1.54,.8-3,1.36-4.4,.18-.05,.39-.14,.63-.28,.23-.14,.46-.25,.7-.35,.23-.09,.43-.12,.59-.07,.16,.05,.24,.21,.24,.49v8.86h7.61v1.81h-7.61v22.68c0,.65,.06,1.36,.17,2.13,.12,.77,.32,1.48,.63,2.13,.3,.65,.72,1.2,1.26,1.64,.53,.44,1.22,.66,2.06,.66,.74,0,1.47-.08,2.16-.25,.7-.16,1.37-.45,2.02-.87l.56,.77c-.28,.51-.7,.97-1.26,1.36Z"/><path class="cls-1" d="M509.8,199.13c-.56,.4-1.15,.73-1.78,1.01s-1.28,.49-1.95,.63c-.67,.14-1.29,.21-1.85,.21-1.49,0-2.69-.26-3.59-.77-.91-.51-1.62-1.2-2.13-2.06-.51-.86-.86-1.86-1.05-3-.19-1.14-.28-2.34-.28-3.59v-22.68h-5.23v-1.47l5.02-.35c.79-1.3,1.36-2.72,1.71-4.26,.35-1.54,.8-3,1.36-4.4,.18-.05,.39-.14,.63-.28,.23-.14,.46-.25,.7-.35,.23-.09,.43-.12,.59-.07,.16,.05,.24,.21,.24,.49v8.86h7.61v1.81h-7.61v22.68c0,.65,.06,1.36,.17,2.13,.12,.77,.32,1.48,.63,2.13,.3,.65,.72,1.2,1.26,1.64,.53,.44,1.22,.66,2.06,.66,.74,0,1.47-.08,2.16-.25,.7-.16,1.37-.45,2.02-.87l.56,.77c-.28,.51-.7,.97-1.26,1.36Z"/><path class="cls-1" d="M518.31,200.28v-.56c1.26,0,2.08-.15,2.48-.45,.39-.3,.59-1.13,.59-2.48v-25.19c0-.79-.06-1.33-.17-1.61-.12-.28-.29-.45-.52-.52-.23-.07-.55-.08-.94-.03-.4,.05-.9,0-1.5-.14v-.35l6.84-2.37,1.33,.07v30.36c0,1.02,.07,1.73,.21,2.13,.14,.4,.74,.59,1.82,.59v.56h-10.12Zm7.26-43.44c-.6,.54-1.28,.8-2.02,.8s-1.42-.27-2.02-.8c-.61-.53-.91-1.34-.91-2.41s.3-1.87,.91-2.41c.6-.53,1.28-.8,2.02-.8s1.42,.27,2.02,.8c.6,.54,.91,1.34,.91,2.41s-.3,1.87-.91,2.41Z"/><path class="cls-1" d="M578.19,200.28v-.56c1.21,0,1.97-.17,2.27-.52,.3-.35,.45-1.15,.45-2.41v-18.7c0-1.07-.12-2.09-.35-3.07-.23-.98-.59-1.84-1.08-2.58-.49-.74-1.15-1.34-1.99-1.78-.84-.44-1.84-.66-3-.66-1.86,0-3.49,.51-4.89,1.54-1.4,1.02-2.42,2.42-3.07,4.19-.09,.23-.21,.62-.35,1.15-.14,.54-.21,.92-.21,1.15v18.98c0,.65,.04,1.16,.1,1.54,.07,.37,.21,.65,.42,.84,.21,.19,.5,.29,.87,.31s.86,.03,1.47,.03v.56h-10.61v-.56c1.21,0,1.96-.17,2.27-.52,.3-.35,.45-1.15,.45-2.41v-18.7c0-1.02-.09-2.01-.28-2.97-.19-.95-.51-1.81-.98-2.58s-1.09-1.38-1.88-1.85c-.79-.46-1.77-.7-2.93-.7-1.95,0-3.64,.51-5.06,1.54-1.42,1.02-2.48,2.42-3.18,4.19-.09,.23-.23,.62-.42,1.15-.19,.54-.28,.92-.28,1.15-.05,3.21-.06,6.38-.04,9.49,.02,3.12,.04,6.28,.04,9.49,0,.65,.04,1.16,.1,1.54,.07,.37,.2,.64,.38,.8,.19,.16,.45,.27,.8,.31,.35,.05,.83,.07,1.43,.07v.56h-10.54v-.56c1.21,0,1.98-.16,2.3-.49s.49-1.14,.49-2.44v-25.47c0-.74-.05-1.24-.14-1.5-.09-.26-.23-.41-.42-.45-.19-.05-.44-.04-.77,.04-.33,.07-.72,.04-1.19-.1v-.63l6-2.09,1.33,.07v6.14c1.4-1.95,2.97-3.52,4.71-4.71,1.75-1.19,3.87-1.78,6.39-1.78,.98,0,1.92,.17,2.83,.52,.91,.35,1.72,.81,2.44,1.4,.72,.58,1.34,1.29,1.85,2.13,.51,.84,.86,1.74,1.05,2.72,.7-1.44,1.7-2.7,3-3.77,1.3-1.07,2.72-1.87,4.26-2.41,1.54-.53,3.12-.76,4.75-.66,1.63,.09,3.11,.57,4.43,1.43,1.33,.86,2.41,2.13,3.25,3.8,.84,1.67,1.26,3.84,1.26,6.49v19.05c0,.65,.02,1.16,.07,1.54,.05,.37,.16,.64,.35,.8,.19,.16,.45,.27,.8,.31,.35,.05,.83,.07,1.43,.07v.56h-10.4Z"/><path class="cls-1" d="M623,198.74c-1.21,.74-2.29,1.29-3.25,1.64-.95,.35-1.76,.41-2.41,.17-.65-.23-1.16-.77-1.54-1.61-.37-.84-.58-2.07-.63-3.7-1.35,1.67-2.93,3.06-4.75,4.15s-3.82,1.64-6,1.64c-1.3,0-2.51-.2-3.63-.59-1.12-.4-2.09-.98-2.93-1.75s-1.5-1.69-1.99-2.76c-.49-1.07-.73-2.28-.73-3.63s.25-2.62,.77-3.66c.51-1.05,1.19-1.95,2.02-2.72,.84-.77,1.82-1.44,2.93-2.02s2.28-1.13,3.49-1.64c2-.88,3.84-1.48,5.51-1.78s3.37-.73,5.09-1.29v-3.42c0-1.16-.26-2.19-.77-3.07-.51-.88-1.18-1.6-1.99-2.16-.81-.56-1.75-.98-2.79-1.26s-2.08-.42-3.11-.42c-.56,0-1.16,.1-1.81,.31-.65,.21-1.3,.48-1.95,.8-.65,.33-1.28,.69-1.88,1.08-.61,.4-1.14,.76-1.61,1.08l-.63-.42c.46-.51,.93-.99,1.4-1.43,.46-.44,.95-.85,1.47-1.22,1.21-.93,2.43-1.63,3.66-2.09,1.23-.46,2.59-.7,4.08-.7,3.54,0,6.22,.88,8.06,2.65,1.84,1.77,2.76,4.44,2.76,8.03v17.1c0,.23,.01,.58,.04,1.05s.08,.95,.17,1.46c.09,.51,.23,.95,.42,1.33,.18,.37,.44,.56,.77,.56,.28,0,.59-.07,.94-.21,.35-.14,.64-.33,.87-.56l-.07,1.05Zm-12.35-15.77c-1.07,.28-2.2,.6-3.38,.98-1.19,.37-2.29,.87-3.32,1.5s-1.86,1.4-2.51,2.3c-.65,.91-.98,2.04-.98,3.38,0,1.58,.36,2.84,1.08,3.77,.72,.93,1.62,1.57,2.69,1.92,1.07,.35,2.23,.43,3.49,.25,1.26-.19,2.42-.59,3.49-1.22,1.07-.63,1.96-1.45,2.69-2.48,.72-1.02,1.08-2.21,1.08-3.56v-7.96l-4.33,1.12Z"/></g><g><path class="cls-1" d="M390.75,44.24V122.31c0,2.39-1.92,4.33-4.29,4.33h-20.08c-2.37,0-4.29-1.94-4.29-4.33V44.24c0-2.02,1.37-10.57,3.22-13.19,0,0,0,0,0,0,.97-1.91,3.3-3.47,6.32-4.28V1.05c0-.58,.47-1.05,1.05-1.05h7.45c.58,0,1.05,.47,1.05,1.05V26.76c3.02,.81,5.36,2.37,6.33,4.28,0,0,0,0,0,0,1.85,2.62,3.22,11.17,3.22,13.19Z"/><g><path class="cls-1" d="M256.59,51.11v1c-.27,.06-.55,.12-.83,.16-.57,.08-1.15,.13-1.73,.13s-1.16-.05-1.74-.13c-.41-.06-.82-.15-1.22-.26v-.9h5.52Z"/><path class="cls-1" d="M270.14,126.4h-32.57c-1.21,0-1.57-1.66-.45-2.15l13.95-6.2V52.01c.4,.11,.81,.2,1.22,.26,.58,.08,1.15,.13,1.74,.13s1.16-.05,1.73-.13c.28-.04,.56-.1,.83-.16V118.03l14.01,6.22c1.11,.49,.76,2.15-.46,2.15Z"/><path class="cls-1" d="M251.07,51.11v.9c-9.97-2.67-17.63-18.61-17.63-37.9,0-4.99,.52-9.74,1.45-14.11h11.25l19.61,45.59c-2.66,3.44-5.79,5.73-9.16,6.52v-1h-5.52Z"/><path class="cls-1" d="M256.59,51.11v1c-.27,.06-.55,.12-.83,.16-.57,.08-1.15,.13-1.73,.13s-1.16-.05-1.74-.13c-.41-.06-.82-.15-1.22-.26v-.9h5.52Z"/></g><path class="cls-2" d="M364.58,4.1c-1.18,1.49-2.2,3.29-3.07,5.4l-45.62,117.87h-7.64L260.22,9.87c-1-2.36-2.21-4.25-3.63-5.68-1.43-1.43-3.44-2.2-6.05-2.33V0h32.96V1.86c-1.24,0-2.42,.03-3.54,.09-1.12,.07-2.05,.31-2.79,.75s-1.21,1.08-1.4,1.95,.03,2.05,.65,3.54l37.99,95.71L349.41,12.29c1.36-3.47,1.67-6.02,.93-7.63-.75-1.61-3.11-2.54-7.08-2.79V0h26.81V1.86c-2.48,0-4.32,.75-5.5,2.24Z"/></g></g></g></svg>